<svg width="135" height="43" viewBox="0 0 135 43" fill="none" xmlns="http://www.w3.org/2000/svg">
<rect width="41.9999" height="42" transform="translate(0.5 0.5)" fill="#5DCBE6"/>
<path d="M29.4441 17.4264C29.4568 17.604 29.4568 17.7817 29.4568 17.9594C29.4568 23.3781 25.3325 29.6218 17.7944 29.6218C15.4721 29.6218 13.3147 28.9492 11.5 27.7817C11.83 27.8198 12.1472 27.8325 12.4898 27.8325C14.4061 27.8325 16.17 27.1853 17.5787 26.0812C15.7766 26.0431 14.2665 24.8629 13.7462 23.2386C14 23.2766 14.2538 23.302 14.5203 23.302C14.8883 23.302 15.2564 23.2512 15.599 23.1624C13.7208 22.7817 12.3121 21.132 12.3121 19.1396V19.0888C12.8578 19.3934 13.4924 19.5838 14.1649 19.6091C13.0609 18.8731 12.3375 17.6167 12.3375 16.1954C12.3375 15.434 12.5405 14.736 12.8959 14.1269C14.9137 16.6142 17.9467 18.2385 21.3477 18.4162C21.2842 18.1117 21.2461 17.7944 21.2461 17.4772C21.2461 15.2183 23.0736 13.3782 25.3451 13.3782C26.5253 13.3782 27.5913 13.8731 28.34 14.6726C29.2664 14.4949 30.1547 14.1523 30.9416 13.6828C30.637 14.6346 29.9898 15.434 29.1395 15.9416C29.9644 15.8528 30.7639 15.6244 31.4999 15.3071C30.9416 16.1193 30.2436 16.8426 29.4441 17.4264Z" fill="white"/>
<rect width="42" height="42" transform="translate(46.4999 0.5)" fill="#5DCBE6"/>
<path d="M72.1538 22.75L72.7093 19.1305H69.2363V16.7816C69.2363 15.7914 69.7214 14.8262 71.2769 14.8262H72.8558V11.7445C72.8558 11.7445 71.423 11.5 70.0531 11.5C67.1929 11.5 65.3234 13.2336 65.3234 16.3719V19.1305H62.1441V22.75H65.3234V31.5H69.2363V22.75H72.1538Z" fill="white"/>
<rect width="42.0045" height="42" transform="translate(92.4999 0.5)" fill="#5DCBE6"/>
<path d="M113.504 16.3723C110.666 16.3723 108.377 18.6617 108.377 21.5C108.377 24.3384 110.666 26.6278 113.504 26.6278C116.343 26.6278 118.632 24.3384 118.632 21.5C118.632 18.6617 116.343 16.3723 113.504 16.3723ZM113.504 24.8337C111.67 24.8337 110.171 23.3387 110.171 21.5C110.171 19.6613 111.666 18.1663 113.504 18.1663C115.343 18.1663 116.838 19.6613 116.838 21.5C116.838 23.3387 115.339 24.8337 113.504 24.8337ZM120.038 16.1625C120.038 16.8275 119.502 17.3585 118.842 17.3585C118.177 17.3585 117.646 16.823 117.646 16.1625C117.646 15.502 118.181 14.9665 118.842 14.9665C119.502 14.9665 120.038 15.502 120.038 16.1625ZM123.434 17.3764C123.358 15.7743 122.992 14.3551 121.819 13.1858C120.649 12.0166 119.23 11.6506 117.628 11.5703C115.977 11.4766 111.028 11.4766 109.376 11.5703C107.779 11.6462 106.359 12.0121 105.186 13.1814C104.012 14.3506 103.651 15.7698 103.57 17.3719C103.477 19.0232 103.477 23.9724 103.57 25.6236C103.646 27.2258 104.012 28.6449 105.186 29.8142C106.359 30.9834 107.774 31.3494 109.376 31.4297C111.028 31.5234 115.977 31.5234 117.628 31.4297C119.23 31.3539 120.649 30.9879 121.819 29.8142C122.988 28.6449 123.354 27.2258 123.434 25.6236C123.528 23.9724 123.528 19.0276 123.434 17.3764ZM121.301 27.3954C120.953 28.2701 120.279 28.944 119.4 29.2965C118.083 29.8187 114.959 29.6982 113.504 29.6982C112.05 29.6982 108.921 29.8142 107.609 29.2965C106.734 28.9484 106.06 28.2745 105.708 27.3954C105.186 26.0788 105.306 22.9549 105.306 21.5C105.306 20.0451 105.19 16.9167 105.708 15.6047C106.056 14.73 106.73 14.0561 107.609 13.7035C108.926 13.1814 112.05 13.3019 113.504 13.3019C114.959 13.3019 118.088 13.1858 119.4 13.7035C120.274 14.0516 120.948 14.7255 121.301 15.6047C121.823 16.9212 121.703 20.0451 121.703 21.5C121.703 22.9549 121.823 26.0833 121.301 27.3954Z" fill="white"/>
</svg>
